<svg xmlns="http://www.w3.org/2000/svg" width="58.432" height="14.305" viewBox="0 0 58.432 14.305">
    <g id="Artwork_1" data-name="Artwork 1" transform="translate(29.216 7.153)">
        <g id="Group_4784" data-name="Group 4784" transform="translate(-29.216 -7.153)">
            <path class="fanaticLogo" data-name="Path 8868" d="M7.921,5.2A.5.5,0,0,0,8.416,4.7l.011-1.761a.49.49,0,0,0-.489-.492H.492A.493.493,0,0,0,0,2.943v12.63a.493.493,0,0,0,.492.492H1.931a.493.493,0,0,0,.492-.492V12.039a.494.494,0,0,1,.492-.492l3.313,0a.492.492,0,0,0,.49-.492l0-1.046a.5.5,0,0,0-.493-.492l-3.307,0a.494.494,0,0,1-.492-.492V5.687A.493.493,0,0,1,2.915,5.2Z" transform="translate(0 -2.201)"></path>
            <path class="fanaticLogo" data-name="Path 8869" d="M431.956,2.308a.493.493,0,0,1,.492-.492h1.439a.493.493,0,0,1,.492.492v12.63a.493.493,0,0,1-.492.492h-1.439a.493.493,0,0,1-.492-.492Z" transform="translate(-387.949 -1.631)"></path>
            <path class="fanaticLogo" data-name="Path 8870" d="M154.87,1.537a.493.493,0,0,0-.492.492v9.13c0,.27,0,.5-.01.5a.014.014,0,0,1-.019,0c-.005-.005-.131-.195-.278-.421l-6.058-9.29a1.015,1.015,0,0,0-.76-.412h-2.228c-.27,0-.492,0-.492,0s0,0,.01,0,.01.221.01.492V4.565a2.831,2.831,0,0,0,.2.943l2.011,4.633c.108.248.2.23.2-.041V5.2a3.142,3.142,0,0,1,.019-.492,4.03,4.03,0,0,1,.286.413l6.2,9.614a1.008,1.008,0,0,0,.758.413h2.093a.493.493,0,0,0,.492-.492V2.029a.493.493,0,0,0-.492-.492Z" transform="translate(-129.808 -1.38)"></path>
            <path class="fanaticLogo" data-name="Path 8871" d="M92.652,1.993a.812.812,0,0,0-.686-.452H90.886a.493.493,0,0,0-.492.492V3.968a.464.464,0,0,0,.473.475.717.717,0,0,1,.645.444l1.192,3.19a.319.319,0,0,1-.32.461H90.327a.493.493,0,0,0-.492.492v1.094a.493.493,0,0,0,.492.492h2.9a.788.788,0,0,1,.675.456L95.368,14.7a.788.788,0,0,0,.675.456h1.786a.3.3,0,0,0,.3-.452Z" transform="translate(-80.683 -1.384)"></path>
            <path class="fanaticLogo" data-name="Path 8872" d="M278.593,1.993a.812.812,0,0,0-.686-.452h-1.079a.493.493,0,0,0-.492.492V3.968a.464.464,0,0,0,.473.475.717.717,0,0,1,.645.444l1.192,3.19a.319.319,0,0,1-.32.461h-2.059a.493.493,0,0,0-.492.492v1.094a.493.493,0,0,0,.492.492h2.9a.788.788,0,0,1,.675.456l1.462,3.628a.788.788,0,0,0,.675.456h1.786a.3.3,0,0,0,.3-.452Z" transform="translate(-247.681 -1.384)"></path>
            <path class="fanaticLogo" data-name="Path 8873" d="M312.043,1.025a.3.3,0,0,0-.3.452l.555,1.289a.812.812,0,0,0,.686.452h3.547a.493.493,0,0,1,.492.492V11.4a2.85,2.85,0,0,0,.195.943l.8,1.848a.812.812,0,0,0,.686.452h.254a.493.493,0,0,0,.492-.492V3.709a.493.493,0,0,1,.492-.492h2.633a.493.493,0,0,0,.492-.492V1.517a.493.493,0,0,0-.492-.492Z" transform="translate(-279.953 -0.921)"></path>
            <path class="fanaticLogo" data-name="Path 8874" d="M477.588,11.865a.478.478,0,0,0-.108-.664l-1.188-.856a.468.468,0,0,0-.653.093.441.441,0,0,0-.018.041l-.026-.018a3.826,3.826,0,0,1-3.057,1.654c-2.807,0-4.673-2.153-4.673-5.057a4.618,4.618,0,0,1,4.673-4.865A3.708,3.708,0,0,1,475.4,3.538l.01-.007a.445.445,0,0,0,.078.123l.113.118a.477.477,0,0,0,.673.013l1-.966a.462.462,0,0,0,.036-.649c-.01-.01-.024-.014-.035-.023A5.917,5.917,0,0,0,472.518,0,7.033,7.033,0,0,0,466.8,2.6v9.137a7.081,7.081,0,0,0,5.716,2.573,6.025,6.025,0,0,0,5.077-2.423l-.013-.009Z" transform="translate(-419.245 0)"></path>
        </g>
    </g>
</svg>